<svg width="66" height="66" viewBox="0 0 66 66" fill="none" xmlns="http://www.w3.org/2000/svg">
<rect width="66" height="66" rx="13.2" fill="#202020"/>
<mask id="mask0_23_1076" style="mask-type:alpha" maskUnits="userSpaceOnUse" x="16" y="34" width="34" height="20">
<rect x="16.715" y="34.7633" width="32.6753" height="18.0574" fill="#D9D9D9" stroke="#E7D35B" stroke-width="0.429938"/>
</mask>
<g mask="url(#mask0_23_1076)">
<path d="M21.014 6.38745V43.5489C21.014 44.3956 21.7003 45.0819 22.5469 45.0819H27.5696C36.89 45.0819 44.4457 37.5262 44.4457 28.2058C44.4457 27.5534 43.9168 27.0245 43.2643 27.0245H29.6128" stroke="#EDD64D" stroke-width="6.87901"/>
</g>
<mask id="mask1_23_1076" style="mask-type:alpha" maskUnits="userSpaceOnUse" x="16" y="14" width="10" height="21">
<rect x="16.715" y="14.3578" width="9.0287" height="19.9756" fill="#7B96E8" stroke="#7B96E8" stroke-width="0.429938"/>
</mask>
<g mask="url(#mask1_23_1076)">
<path d="M21.014 15.1779V40.2608C21.014 41.1074 21.7003 41.7937 22.5469 41.7937H32.8375C39.2485 41.7937 44.4457 36.5966 44.4457 30.1856C44.4457 29.7368 44.0819 29.373 43.6331 29.373H29.6128" stroke="#7B96E8" stroke-width="6.87901"/>
</g>
<mask id="mask2_23_1076" style="mask-type:alpha" maskUnits="userSpaceOnUse" x="28" y="20" width="22" height="15">
<rect x="28.3234" y="21.0053" width="21.067" height="13.3281" fill="#D9D9D9" stroke="#525A71" stroke-width="0.429938"/>
</mask>
<g mask="url(#mask2_23_1076)">
<path d="M20.7988 6.38757V43.5491C20.7988 44.3957 21.4851 45.082 22.3317 45.082H27.3544C36.6748 45.082 44.2304 37.5263 44.2304 28.2059C44.2304 27.5535 43.7015 27.0246 43.0491 27.0246H29.3976" stroke="white" stroke-width="6.87901"/>
</g>
</svg>
